<?plantuml 1.2026.2beta3?><svg xmlns="http://www.w3.org/2000/svg" xmlns:xlink="http://www.w3.org/1999/xlink" contentStyleType="text/css" data-diagram-type="CLASS" height="474px" preserveAspectRatio="none" style="width:492px;height:474px;background:#FFFFFF;" version="1.1" viewBox="0 0 492 474" width="492px" zoomAndPan="magnify"><title>Ecosistema Musical Completo - Iteraci&#243;n Final</title><defs/><g><g class="title" data-source-line="1"><text fill="#000000" font-family="sans-serif" font-size="14" font-weight="bold" lengthAdjust="spacing" textLength="363.0361" x="57.9733" y="22.9951">Ecosistema Musical Completo - Iteraci&#243;n Final</text></g><!--class Cantante--><g class="entity" data-qualified-name="Cantante" data-source-line="3" id="ent0002"><rect fill="#F1F1F1" height="48" rx="2.5" ry="2.5" style="stroke:#181818;stroke-width:0.5;" width="96.2715" x="261.05" y="169.2969"/><ellipse cx="276.05" cy="185.2969" fill="#ADD1B2" rx="11" ry="11" style="stroke:#181818;stroke-width:1;"/><path d="M279.0188,190.9375 Q278.4406,191.2344 277.8,191.375 Q277.1594,191.5313 276.4563,191.5313 Q273.9563,191.5313 272.6281,189.8906 Q271.3156,188.2344 271.3156,185.1094 Q271.3156,181.9844 272.6281,180.3281 Q273.9563,178.6719 276.4563,178.6719 Q277.1594,178.6719 277.8,178.8281 Q278.4563,178.9844 279.0188,179.2813 L279.0188,182 Q278.3938,181.4219 277.8,181.1563 Q277.2063,180.875 276.5813,180.875 Q275.2375,180.875 274.55,181.9531 Q273.8625,183.0156 273.8625,185.1094 Q273.8625,187.2031 274.55,188.2813 Q275.2375,189.3438 276.5813,189.3438 Q277.2063,189.3438 277.8,189.0781 Q278.3938,188.7969 279.0188,188.2188 L279.0188,190.9375 Z " fill="#000000"/><text fill="#000000" font-family="sans-serif" font-size="14" lengthAdjust="spacing" textLength="64.2715" x="290.05" y="190.1436">Cantante</text><line style="stroke:#181818;stroke-width:0.5;" x1="262.05" x2="356.3215" y1="201.2969" y2="201.2969"/><line style="stroke:#181818;stroke-width:0.5;" x1="262.05" x2="356.3215" y1="209.2969" y2="209.2969"/></g><!--class Disco--><g class="entity" data-qualified-name="Disco" data-source-line="6" id="ent0003"><rect fill="#F1F1F1" height="48" rx="2.5" ry="2.5" style="stroke:#181818;stroke-width:0.5;" width="70.2266" x="132.07" y="294.2969"/><ellipse cx="147.07" cy="310.2969" fill="#ADD1B2" rx="11" ry="11" style="stroke:#181818;stroke-width:1;"/><path d="M150.0388,315.9375 Q149.4606,316.2344 148.82,316.375 Q148.1794,316.5313 147.4763,316.5313 Q144.9763,316.5313 143.6481,314.8906 Q142.3356,313.2344 142.3356,310.1094 Q142.3356,306.9844 143.6481,305.3281 Q144.9763,303.6719 147.4763,303.6719 Q148.1794,303.6719 148.82,303.8281 Q149.4763,303.9844 150.0388,304.2813 L150.0388,307 Q149.4138,306.4219 148.82,306.1563 Q148.2263,305.875 147.6013,305.875 Q146.2575,305.875 145.57,306.9531 Q144.8825,308.0156 144.8825,310.1094 Q144.8825,312.2031 145.57,313.2813 Q146.2575,314.3438 147.6013,314.3438 Q148.2263,314.3438 148.82,314.0781 Q149.4138,313.7969 150.0388,313.2188 L150.0388,315.9375 Z " fill="#000000"/><text fill="#000000" font-family="sans-serif" font-size="14" lengthAdjust="spacing" textLength="38.2266" x="161.07" y="315.1436">Disco</text><line style="stroke:#181818;stroke-width:0.5;" x1="133.07" x2="201.2966" y1="326.2969" y2="326.2969"/><line style="stroke:#181818;stroke-width:0.5;" x1="133.07" x2="201.2966" y1="334.2969" y2="334.2969"/></g><!--class Cancion--><g class="entity" data-qualified-name="Cancion" data-source-line="9" id="ent0004"><rect fill="#F1F1F1" height="48" rx="2.5" ry="2.5" style="stroke:#181818;stroke-width:0.5;" width="88.2529" x="185.06" y="419.2969"/><ellipse cx="200.06" cy="435.2969" fill="#ADD1B2" rx="11" ry="11" style="stroke:#181818;stroke-width:1;"/><path d="M203.0288,440.9375 Q202.4506,441.2344 201.81,441.375 Q201.1694,441.5313 200.4663,441.5313 Q197.9663,441.5313 196.6381,439.8906 Q195.3256,438.2344 195.3256,435.1094 Q195.3256,431.9844 196.6381,430.3281 Q197.9663,428.6719 200.4663,428.6719 Q201.1694,428.6719 201.81,428.8281 Q202.4663,428.9844 203.0288,429.2813 L203.0288,432 Q202.4038,431.4219 201.81,431.1563 Q201.2163,430.875 200.5913,430.875 Q199.2475,430.875 198.56,431.9531 Q197.8725,433.0156 197.8725,435.1094 Q197.8725,437.2031 198.56,438.2813 Q199.2475,439.3438 200.5913,439.3438 Q201.2163,439.3438 201.81,439.0781 Q202.4038,438.7969 203.0288,438.2188 L203.0288,440.9375 Z " fill="#000000"/><text fill="#000000" font-family="sans-serif" font-size="14" lengthAdjust="spacing" textLength="56.2529" x="214.06" y="440.1436">Cancion</text><line style="stroke:#181818;stroke-width:0.5;" x1="186.06" x2="272.3129" y1="451.2969" y2="451.2969"/><line style="stroke:#181818;stroke-width:0.5;" x1="186.06" x2="272.3129" y1="459.2969" y2="459.2969"/></g><!--class Playlist--><g class="entity" data-qualified-name="Playlist" data-source-line="12" id="ent0005"><rect fill="#F1F1F1" height="48" rx="2.5" ry="2.5" style="stroke:#181818;stroke-width:0.5;" width="81.7588" x="251.31" y="294.2969"/><ellipse cx="266.31" cy="310.2969" fill="#ADD1B2" rx="11" ry="11" style="stroke:#181818;stroke-width:1;"/><path d="M269.2788,315.9375 Q268.7006,316.2344 268.06,316.375 Q267.4194,316.5313 266.7163,316.5313 Q264.2163,316.5313 262.8881,314.8906 Q261.5756,313.2344 261.5756,310.1094 Q261.5756,306.9844 262.8881,305.3281 Q264.2163,303.6719 266.7163,303.6719 Q267.4194,303.6719 268.06,303.8281 Q268.7163,303.9844 269.2788,304.2813 L269.2788,307 Q268.6538,306.4219 268.06,306.1563 Q267.4663,305.875 266.8413,305.875 Q265.4975,305.875 264.81,306.9531 Q264.1225,308.0156 264.1225,310.1094 Q264.1225,312.2031 264.81,313.2813 Q265.4975,314.3438 266.8413,314.3438 Q267.4663,314.3438 268.06,314.0781 Q268.6538,313.7969 269.2788,313.2188 L269.2788,315.9375 Z " fill="#000000"/><text fill="#000000" font-family="sans-serif" font-size="14" lengthAdjust="spacing" textLength="49.7588" x="280.31" y="315.1436">Playlist</text><line style="stroke:#181818;stroke-width:0.5;" x1="252.31" x2="332.0688" y1="326.2969" y2="326.2969"/><line style="stroke:#181818;stroke-width:0.5;" x1="252.31" x2="332.0688" y1="334.2969" y2="334.2969"/></g><!--class Instrumento--><g class="entity" data-qualified-name="Instrumento" data-source-line="15" id="ent0006"><rect fill="#F1F1F1" height="48" rx="2.5" ry="2.5" style="stroke:#181818;stroke-width:0.5;" width="117.5928" x="368.39" y="294.2969"/><ellipse cx="383.39" cy="310.2969" fill="#ADD1B2" rx="11" ry="11" style="stroke:#181818;stroke-width:1;"/><path d="M386.3588,315.9375 Q385.7806,316.2344 385.14,316.375 Q384.4994,316.5313 383.7963,316.5313 Q381.2963,316.5313 379.9681,314.8906 Q378.6556,313.2344 378.6556,310.1094 Q378.6556,306.9844 379.9681,305.3281 Q381.2963,303.6719 383.7963,303.6719 Q384.4994,303.6719 385.14,303.8281 Q385.7963,303.9844 386.3588,304.2813 L386.3588,307 Q385.7338,306.4219 385.14,306.1563 Q384.5463,305.875 383.9213,305.875 Q382.5775,305.875 381.89,306.9531 Q381.2025,308.0156 381.2025,310.1094 Q381.2025,312.2031 381.89,313.2813 Q382.5775,314.3438 383.9213,314.3438 Q384.5463,314.3438 385.14,314.0781 Q385.7338,313.7969 386.3588,313.2188 L386.3588,315.9375 Z " fill="#000000"/><text fill="#000000" font-family="sans-serif" font-size="14" lengthAdjust="spacing" textLength="85.5928" x="397.39" y="315.1436">Instrumento</text><line style="stroke:#181818;stroke-width:0.5;" x1="369.39" x2="484.9828" y1="326.2969" y2="326.2969"/><line style="stroke:#181818;stroke-width:0.5;" x1="369.39" x2="484.9828" y1="334.2969" y2="334.2969"/></g><!--class SelloDiscografico--><g class="entity" data-qualified-name="SelloDiscografico" data-source-line="18" id="ent0007"><rect fill="#F1F1F1" height="48" rx="2.5" ry="2.5" style="stroke:#181818;stroke-width:0.5;" width="152.374" x="7" y="169.2969"/><ellipse cx="22" cy="185.2969" fill="#ADD1B2" rx="11" ry="11" style="stroke:#181818;stroke-width:1;"/><path d="M24.9688,190.9375 Q24.3906,191.2344 23.75,191.375 Q23.1094,191.5313 22.4063,191.5313 Q19.9063,191.5313 18.5781,189.8906 Q17.2656,188.2344 17.2656,185.1094 Q17.2656,181.9844 18.5781,180.3281 Q19.9063,178.6719 22.4063,178.6719 Q23.1094,178.6719 23.75,178.8281 Q24.4063,178.9844 24.9688,179.2813 L24.9688,182 Q24.3438,181.4219 23.75,181.1563 Q23.1563,180.875 22.5313,180.875 Q21.1875,180.875 20.5,181.9531 Q19.8125,183.0156 19.8125,185.1094 Q19.8125,187.2031 20.5,188.2813 Q21.1875,189.3438 22.5313,189.3438 Q23.1563,189.3438 23.75,189.0781 Q24.3438,188.7969 24.9688,188.2188 L24.9688,190.9375 Z " fill="#000000"/><text fill="#000000" font-family="sans-serif" font-size="14" lengthAdjust="spacing" textLength="120.374" x="36" y="190.1436">SelloDiscografico</text><line style="stroke:#181818;stroke-width:0.5;" x1="8" x2="158.374" y1="201.2969" y2="201.2969"/><line style="stroke:#181818;stroke-width:0.5;" x1="8" x2="158.374" y1="209.2969" y2="209.2969"/></g><!--class Estudio--><g class="entity" data-qualified-name="Estudio" data-source-line="21" id="ent0008"><rect fill="#F1F1F1" height="48" rx="2.5" ry="2.5" style="stroke:#181818;stroke-width:0.5;" width="83.8438" x="326.27" y="44.2969"/><ellipse cx="341.27" cy="60.2969" fill="#ADD1B2" rx="11" ry="11" style="stroke:#181818;stroke-width:1;"/><path d="M344.2388,65.9375 Q343.6606,66.2344 343.02,66.375 Q342.3794,66.5313 341.6763,66.5313 Q339.1763,66.5313 337.8481,64.8906 Q336.5356,63.2344 336.5356,60.1094 Q336.5356,56.9844 337.8481,55.3281 Q339.1763,53.6719 341.6763,53.6719 Q342.3794,53.6719 343.02,53.8281 Q343.6763,53.9844 344.2388,54.2813 L344.2388,57 Q343.6138,56.4219 343.02,56.1563 Q342.4263,55.875 341.8013,55.875 Q340.4575,55.875 339.77,56.9531 Q339.0825,58.0156 339.0825,60.1094 Q339.0825,62.2031 339.77,63.2813 Q340.4575,64.3438 341.8013,64.3438 Q342.4263,64.3438 343.02,64.0781 Q343.6138,63.7969 344.2388,63.2188 L344.2388,65.9375 Z " fill="#000000"/><text fill="#000000" font-family="sans-serif" font-size="14" lengthAdjust="spacing" textLength="51.8438" x="355.27" y="65.1436">Estudio</text><line style="stroke:#181818;stroke-width:0.5;" x1="327.27" x2="409.1138" y1="76.2969" y2="76.2969"/><line style="stroke:#181818;stroke-width:0.5;" x1="327.27" x2="409.1138" y1="84.2969" y2="84.2969"/></g><!--link Cantante to Disco--><g class="link" data-entity-1="ent0002" data-entity-2="ent0003" data-link-type="association" data-source-line="24" id="lnk9"><path codeLine="24" d="M263.1,217.7069 C248.89,226.0369 233.7,236.1469 221.19,247.2969 C205.83,260.9769 191.76,279.5169 181.83,294.0769" fill="none" id="Cantante-Disco" style="stroke:#181818;stroke-width:1;"/><text fill="#000000" font-family="sans-serif" font-size="13" lengthAdjust="spacing" textLength="69.2974" x="222.19" y="260.3638">Asociaci&#243;n</text></g><!--reverse link Disco to Cancion--><g class="link" data-entity-1="ent0003" data-entity-2="ent0004" data-link-type="composition" data-source-line="25" id="lnk10"><path codeLine="25" d="M158.7203,354.5764 C156.1703,368.7164 157.35,374.9069 164.19,389.2969 C169.75,401.0069 179.3,410.9769 189.39,419.0069" fill="none" id="Disco-backto-Cancion" style="stroke:#181818;stroke-width:1;"/><polygon fill="#181818" points="160.85,342.7669,155.8486,347.9617,158.7203,354.5764,163.7216,349.3815,160.85,342.7669" style="stroke:#181818;stroke-width:1;"/><text fill="#000000" font-family="sans-serif" font-size="13" lengthAdjust="spacing" textLength="83.2368" x="165.19" y="385.3638">Composici&#243;n</text></g><!--reverse link Playlist to Cancion--><g class="link" data-entity-1="ent0005" data-entity-2="ent0004" data-link-type="aggregation" data-source-line="26" id="lnk11"><path codeLine="26" d="M274.7202,353.3978 C263.5102,375.2878 252.34,397.0969 241.14,418.9569" fill="none" id="Playlist-backto-Cancion" style="stroke:#181818;stroke-width:1;"/><polygon fill="none" points="280.19,342.7169,273.8948,346.2341,274.7202,353.3978,281.0154,349.8806,280.19,342.7169" style="stroke:#181818;stroke-width:1;"/><text fill="#000000" font-family="sans-serif" font-size="13" lengthAdjust="spacing" textLength="73.6582" x="266.19" y="385.3638">Agregaci&#243;n</text></g><!--link Cantante to Playlist--><g class="link" data-entity-1="ent0002" data-entity-2="ent0005" data-link-type="dependency" data-source-line="27" id="lnk12"><path codeLine="27" d="M305.95,217.7169 C302.92,239.6069 299.2511,266.1533 296.2311,288.0133" fill="none" id="Cantante-to-Playlist" style="stroke:#181818;stroke-width:1;stroke-dasharray:7,7;"/><polygon fill="#181818" points="295.41,293.9569,300.604,285.589,296.0943,289.0039,292.6793,284.4941,295.41,293.9569" style="stroke:#181818;stroke-width:1;"/><text fill="#000000" font-family="sans-serif" font-size="13" lengthAdjust="spacing" textLength="24.2417" x="303.19" y="260.3638">Uso</text></g><!--link Cantante to Instrumento--><g class="link" data-entity-1="ent0002" data-entity-2="ent0006" data-link-type="dependency" data-source-line="28" id="lnk13"><path codeLine="28" d="M331.07,217.7369 C343.87,231.3869 360.37,248.8869 375.19,264.2969 C384.57,274.0569 390.7924,280.4395 399.8424,289.6395" fill="none" id="Cantante-to-Instrumento" style="stroke:#181818;stroke-width:1;stroke-dasharray:7,7;"/><polygon fill="#181818" points="404.05,293.9169,400.5901,284.6957,400.5436,290.3524,394.887,290.3059,404.05,293.9169" style="stroke:#181818;stroke-width:1;"/><text fill="#000000" font-family="sans-serif" font-size="13" lengthAdjust="spacing" textLength="24.2417" x="376.19" y="260.3638">Uso</text></g><!--reverse link SelloDiscografico to Disco--><g class="link" data-entity-1="ent0007" data-entity-2="ent0003" data-link-type="aggregation" data-source-line="29" id="lnk14"><path codeLine="29" d="M73.9083,229.2381 C70.9983,243.6081 72.26,250.1969 80.19,264.2969 C91.27,284.0369 113.02,297.2869 132,305.5969" fill="none" id="SelloDiscografico-backto-Disco" style="stroke:#181818;stroke-width:1;"/><polygon fill="none" points="76.29,217.4769,71.1787,222.5636,73.9083,229.2381,79.0196,224.1514,76.29,217.4769" style="stroke:#181818;stroke-width:1;"/><text fill="#000000" font-family="sans-serif" font-size="13" lengthAdjust="spacing" textLength="73.6582" x="81.19" y="260.3638">Agregaci&#243;n</text></g><!--link Estudio to Cantante--><g class="link" data-entity-1="ent0008" data-entity-2="ent0002" data-link-type="dependency" data-source-line="30" id="lnk15"><path codeLine="30" d="M356.95,92.7169 C346.45,114.6069 333.4658,141.6875 322.9758,163.5475" fill="none" id="Estudio-to-Cantante" style="stroke:#181818;stroke-width:1;stroke-dasharray:7,7;"/><polygon fill="#181818" points="320.38,168.9569,327.88,162.5733,322.5432,164.449,320.6675,159.1122,320.38,168.9569" style="stroke:#181818;stroke-width:1;"/><text fill="#000000" font-family="sans-serif" font-size="13" lengthAdjust="spacing" textLength="24.2417" x="344.19" y="135.3638">Uso</text></g><!--link Estudio to Instrumento--><g class="link" data-entity-1="ent0008" data-entity-2="ent0006" data-link-type="dependency" data-source-line="31" id="lnk16"><path codeLine="31" d="M373.74,92.6269 C384.98,139.8969 408.9513,240.6398 420.2213,288.0098" fill="none" id="Estudio-to-Instrumento" style="stroke:#181818;stroke-width:1;stroke-dasharray:7,7;"/><polygon fill="#181818" points="421.61,293.8469,423.4183,284.1654,420.4527,288.9826,415.6355,286.0171,421.61,293.8469" style="stroke:#181818;stroke-width:1;"/><text fill="#000000" font-family="sans-serif" font-size="13" lengthAdjust="spacing" textLength="24.2417" x="403.19" y="197.8638">Uso</text></g><?plantuml-src RL1B2i8m4Dtt5BCMsWDq8HG_u48Gn0E46Cl0D2ETwKB4Kta4BsPisfgY8QltthnvRnIL76mi2ugwni2-4xI6OCNDbPmovB1JrngBhwU7BNf3MMR9YC3AU0tVmJs3F-ynwjOebeFeaGnQP9z21p8t2X5IRET5swvnNcVJHqV4lMVTcWlEhJUYtHa7Q0gOvqE84YfXYx5D5h55OCT4PTyx72CAfbGyqrHrw-h1OzfH5CjlYn9EmdCkRHFftoAS1asMZAq-FfDfD4cfdnLl?></g></svg>