<?plantuml 1.2026.2beta3?><svg xmlns="http://www.w3.org/2000/svg" xmlns:xlink="http://www.w3.org/1999/xlink" contentStyleType="text/css" data-diagram-type="CLASS" height="349px" preserveAspectRatio="none" style="width:365px;height:349px;background:#FFFFFF;" version="1.1" viewBox="0 0 365 349" width="365px" zoomAndPan="magnify"><title>Ecosistema Musical - Dise&#241;o de Relaciones</title><defs/><g><g class="title" data-source-line="1"><text fill="#000000" font-family="sans-serif" font-size="14" font-weight="bold" lengthAdjust="spacing" textLength="337.3057" x="10" y="22.9951">Ecosistema Musical - Dise&#241;o de Relaciones</text></g><!--class Cantante--><g class="entity" data-qualified-name="Cantante" data-source-line="3" id="ent0002"><rect fill="#F1F1F1" height="48" rx="2.5" ry="2.5" style="stroke:#181818;stroke-width:0.5;" width="96.2715" x="127.7487" y="44.2969"/><ellipse cx="142.7487" cy="60.2969" fill="#ADD1B2" rx="11" ry="11" style="stroke:#181818;stroke-width:1;"/><path d="M145.7175,65.9375 Q145.1394,66.2344 144.4987,66.375 Q143.8581,66.5313 143.155,66.5313 Q140.655,66.5313 139.3269,64.8906 Q138.0144,63.2344 138.0144,60.1094 Q138.0144,56.9844 139.3269,55.3281 Q140.655,53.6719 143.155,53.6719 Q143.8581,53.6719 144.4987,53.8281 Q145.155,53.9844 145.7175,54.2813 L145.7175,57 Q145.0925,56.4219 144.4987,56.1563 Q143.905,55.875 143.28,55.875 Q141.9362,55.875 141.2487,56.9531 Q140.5612,58.0156 140.5612,60.1094 Q140.5612,62.2031 141.2487,63.2813 Q141.9362,64.3438 143.28,64.3438 Q143.905,64.3438 144.4987,64.0781 Q145.0925,63.7969 145.7175,63.2188 L145.7175,65.9375 Z " fill="#000000"/><text fill="#000000" font-family="sans-serif" font-size="14" lengthAdjust="spacing" textLength="64.2715" x="156.7487" y="65.1436">Cantante</text><line style="stroke:#181818;stroke-width:0.5;" x1="128.7487" x2="223.0202" y1="76.2969" y2="76.2969"/><line style="stroke:#181818;stroke-width:0.5;" x1="128.7487" x2="223.0202" y1="84.2969" y2="84.2969"/></g><!--class Disco--><g class="entity" data-qualified-name="Disco" data-source-line="6" id="ent0003"><rect fill="#F1F1F1" height="48" rx="2.5" ry="2.5" style="stroke:#181818;stroke-width:0.5;" width="70.2266" x="85.7687" y="169.2969"/><ellipse cx="100.7687" cy="185.2969" fill="#ADD1B2" rx="11" ry="11" style="stroke:#181818;stroke-width:1;"/><path d="M103.7375,190.9375 Q103.1594,191.2344 102.5187,191.375 Q101.8781,191.5313 101.175,191.5313 Q98.675,191.5313 97.3469,189.8906 Q96.0344,188.2344 96.0344,185.1094 Q96.0344,181.9844 97.3469,180.3281 Q98.675,178.6719 101.175,178.6719 Q101.8781,178.6719 102.5187,178.8281 Q103.175,178.9844 103.7375,179.2813 L103.7375,182 Q103.1125,181.4219 102.5187,181.1563 Q101.925,180.875 101.3,180.875 Q99.9562,180.875 99.2687,181.9531 Q98.5812,183.0156 98.5812,185.1094 Q98.5812,187.2031 99.2687,188.2813 Q99.9562,189.3438 101.3,189.3438 Q101.925,189.3438 102.5187,189.0781 Q103.1125,188.7969 103.7375,188.2188 L103.7375,190.9375 Z " fill="#000000"/><text fill="#000000" font-family="sans-serif" font-size="14" lengthAdjust="spacing" textLength="38.2266" x="114.7687" y="190.1436">Disco</text><line style="stroke:#181818;stroke-width:0.5;" x1="86.7687" x2="154.9953" y1="201.2969" y2="201.2969"/><line style="stroke:#181818;stroke-width:0.5;" x1="86.7687" x2="154.9953" y1="209.2969" y2="209.2969"/></g><!--class Cancion--><g class="entity" data-qualified-name="Cancion" data-source-line="9" id="ent0004"><rect fill="#F1F1F1" height="48" rx="2.5" ry="2.5" style="stroke:#181818;stroke-width:0.5;" width="88.2529" x="131.7587" y="294.2969"/><ellipse cx="146.7587" cy="310.2969" fill="#ADD1B2" rx="11" ry="11" style="stroke:#181818;stroke-width:1;"/><path d="M149.7275,315.9375 Q149.1494,316.2344 148.5087,316.375 Q147.8681,316.5313 147.165,316.5313 Q144.665,316.5313 143.3369,314.8906 Q142.0244,313.2344 142.0244,310.1094 Q142.0244,306.9844 143.3369,305.3281 Q144.665,303.6719 147.165,303.6719 Q147.8681,303.6719 148.5087,303.8281 Q149.165,303.9844 149.7275,304.2813 L149.7275,307 Q149.1025,306.4219 148.5087,306.1563 Q147.915,305.875 147.29,305.875 Q145.9462,305.875 145.2587,306.9531 Q144.5712,308.0156 144.5712,310.1094 Q144.5712,312.2031 145.2587,313.2813 Q145.9462,314.3438 147.29,314.3438 Q147.915,314.3438 148.5087,314.0781 Q149.1025,313.7969 149.7275,313.2188 L149.7275,315.9375 Z " fill="#000000"/><text fill="#000000" font-family="sans-serif" font-size="14" lengthAdjust="spacing" textLength="56.2529" x="160.7587" y="315.1436">Cancion</text><line style="stroke:#181818;stroke-width:0.5;" x1="132.7587" x2="219.0117" y1="326.2969" y2="326.2969"/><line style="stroke:#181818;stroke-width:0.5;" x1="132.7587" x2="219.0117" y1="334.2969" y2="334.2969"/></g><!--class Playlist--><g class="entity" data-qualified-name="Playlist" data-source-line="12" id="ent0005"><rect fill="#F1F1F1" height="48" rx="2.5" ry="2.5" style="stroke:#181818;stroke-width:0.5;" width="81.7588" x="193.9987" y="169.2969"/><ellipse cx="208.9987" cy="185.2969" fill="#ADD1B2" rx="11" ry="11" style="stroke:#181818;stroke-width:1;"/><path d="M211.9675,190.9375 Q211.3894,191.2344 210.7487,191.375 Q210.1081,191.5313 209.405,191.5313 Q206.905,191.5313 205.5769,189.8906 Q204.2644,188.2344 204.2644,185.1094 Q204.2644,181.9844 205.5769,180.3281 Q206.905,178.6719 209.405,178.6719 Q210.1081,178.6719 210.7487,178.8281 Q211.405,178.9844 211.9675,179.2813 L211.9675,182 Q211.3425,181.4219 210.7487,181.1563 Q210.155,180.875 209.53,180.875 Q208.1862,180.875 207.4987,181.9531 Q206.8112,183.0156 206.8112,185.1094 Q206.8112,187.2031 207.4987,188.2813 Q208.1862,189.3438 209.53,189.3438 Q210.155,189.3438 210.7487,189.0781 Q211.3425,188.7969 211.9675,188.2188 L211.9675,190.9375 Z " fill="#000000"/><text fill="#000000" font-family="sans-serif" font-size="14" lengthAdjust="spacing" textLength="49.7588" x="222.9987" y="190.1436">Playlist</text><line style="stroke:#181818;stroke-width:0.5;" x1="194.9987" x2="274.7575" y1="201.2969" y2="201.2969"/><line style="stroke:#181818;stroke-width:0.5;" x1="194.9987" x2="274.7575" y1="209.2969" y2="209.2969"/></g><!--link Cantante to Disco--><g class="link" data-entity-1="ent0002" data-entity-2="ent0003" data-link-type="association" data-source-line="15" id="lnk6"><path codeLine="15" d="M141.1987,92.5469 C131.8587,100.7369 122.9487,110.8169 117.8787,122.2969 C111.4587,136.8769 112.3887,154.8669 114.8387,168.9569" fill="none" id="Cantante-Disco" style="stroke:#181818;stroke-width:1;"/><text fill="#000000" font-family="sans-serif" font-size="13" lengthAdjust="spacing" textLength="69.2974" x="118.8787" y="135.3638">Asociaci&#243;n</text></g><!--reverse link Disco to Cancion--><g class="link" data-entity-1="ent0003" data-entity-2="ent0004" data-link-type="composition" data-source-line="16" id="lnk7"><path codeLine="16" d="M107.5737,229.1413 C103.2137,243.2413 103.9787,249.7669 110.8787,264.2969 C116.4387,276.0069 125.9887,285.9769 136.0887,294.0069" fill="none" id="Disco-backto-Cancion" style="stroke:#181818;stroke-width:1;"/><polygon fill="#181818" points="111.1187,217.6769,105.5247,222.2274,107.5737,229.1413,113.1677,224.5908,111.1187,217.6769" style="stroke:#181818;stroke-width:1;"/><text fill="#000000" font-family="sans-serif" font-size="13" lengthAdjust="spacing" textLength="83.2368" x="111.8787" y="260.3638">Composici&#243;n</text></g><!--reverse link Playlist to Cancion--><g class="link" data-entity-1="ent0005" data-entity-2="ent0004" data-link-type="aggregation" data-source-line="17" id="lnk8"><path codeLine="17" d="M218.4589,228.5365 C207.9589,250.4265 197.5587,272.0969 187.0787,293.9569" fill="none" id="Playlist-backto-Cancion" style="stroke:#181818;stroke-width:1;"/><polygon fill="none" points="223.6487,217.7169,217.4472,221.3967,218.4589,228.5365,224.6603,224.8567,223.6487,217.7169" style="stroke:#181818;stroke-width:1;"/><text fill="#000000" font-family="sans-serif" font-size="13" lengthAdjust="spacing" textLength="73.6582" x="210.8787" y="260.3638">Agregaci&#243;n</text></g><!--link Cantante to Playlist--><g class="link" data-entity-1="ent0002" data-entity-2="ent0005" data-link-type="dependency" data-source-line="18" id="lnk9"><path codeLine="18" d="M187.1187,92.7169 C197.6187,114.6069 210.6029,141.6875 221.0929,163.5475" fill="none" id="Cantante-to-Playlist" style="stroke:#181818;stroke-width:1;stroke-dasharray:7,7;"/><polygon fill="#181818" points="223.6887,168.9569,223.4013,159.1122,221.5255,164.449,216.1887,162.5733,223.6887,168.9569" style="stroke:#181818;stroke-width:1;"/><text fill="#000000" font-family="sans-serif" font-size="13" lengthAdjust="spacing" textLength="24.2417" x="210.8787" y="135.3638">Uso</text></g><?plantuml-src LOv12i8m44NtESMiXVG0MGYbkXH4y01374eWpOWJ5r8yb7Y4NioHjB52LY__lpyvv4Ymzon1CWq8Xxi4Zn4ix8BGz6Au49meeW-SI8pn4KMWmvJr4OpckJ0jU5u33NrRQtIC-8WwLLYrM3kt7RJ2FkZQz4wci8t-BYe77GzNlRO4gex_Ccr_etvsr8scsVxc7Po5Fm00?></g></svg>